<?xml version="1.0" standalone="no"?>
<!DOCTYPE svg PUBLIC "-//W3C//DTD SVG 20010904//EN"
 "http://www.w3.org/TR/2001/REC-SVG-20010904/DTD/svg10.dtd">
<svg version="1.0" xmlns="http://www.w3.org/2000/svg"
 width="700.000000pt" height="490.000000pt" viewBox="0 0 700.000000 490.000000"
 preserveAspectRatio="xMidYMid meet">
<metadata>
Created by potrace 1.13, written by Peter Selinger 2001-2015
</metadata>
<g transform="translate(0.000000,490.000000) scale(0.100000,-0.100000)"
fill="#000000" stroke="none">
<path d="M3425 3889 c-60 -11 -175 -36 -255 -57 -125 -33 -145 -41 -148 -59
-2 -14 -19 -28 -54 -43 -67 -29 -155 -47 -167 -35 -6 6 7 10 37 11 26 0 61 9
77 18 17 10 21 14 10 10 -11 -3 -31 -8 -45 -10 -14 -1 -34 -4 -45 -6 -15 -2
-20 2 -19 20 0 13 -5 22 -14 22 -9 0 -12 -6 -8 -16 3 -8 2 -12 -4 -9 -6 3 -10
-5 -10 -18 0 -20 -11 -30 -57 -52 -122 -60 -232 -144 -300 -229 -137 -173
-288 -473 -268 -535 15 -49 113 -51 282 -6 262 70 396 162 434 298 13 45 16
159 5 193 -6 19 5 24 126 62 226 70 450 118 671 143 l107 12 0 51 c0 73 -15
116 -56 165 -41 47 -119 91 -161 90 -15 0 -77 -9 -138 -20z m-571 -446 c13
-22 15 -64 4 -57 -5 3 -8 11 -7 17 3 19 -12 47 -22 41 -5 -3 -9 0 -9 7 0 8
-12 10 -37 6 -27 -5 -34 -4 -23 4 22 14 82 3 94 -18z"/>
<path d="M4232 3833 c56 -57 92 -124 109 -198 l12 -54 56 -12 c85 -17 222 -64
291 -99 34 -17 64 -30 66 -28 7 7 -58 124 -98 175 -53 69 -124 126 -218 173
-68 34 -225 90 -253 90 -6 0 10 -21 35 -47z"/>
<path d="M2896 3835 c-11 -8 -15 -15 -9 -15 6 0 16 7 23 15 16 19 11 19 -14 0z"/>
<path d="M2855 3811 c-3 -5 -2 -12 3 -15 5 -3 9 1 9 9 0 17 -3 19 -12 6z"/>
<path d="M2825 3790 c-3 -5 -1 -10 4 -10 6 0 11 5 11 10 0 6 -2 10 -4 10 -3 0
-8 -4 -11 -10z"/>
<path d="M2960 3760 c20 -13 33 -13 25 0 -3 6 -14 10 -23 10 -15 0 -15 -2 -2
-10z"/>
<path d="M3599 3223 c-13 -16 -12 -17 4 -4 9 7 17 15 17 17 0 8 -8 3 -21 -13z"/>
<path d="M3569 3183 c-13 -16 -12 -17 4 -4 16 13 21 21 13 21 -2 0 -10 -8 -17
-17z"/>
<path d="M3545 3140 c3 -5 8 -10 11 -10 2 0 4 5 4 10 0 6 -5 10 -11 10 -5 0
-7 -4 -4 -10z"/>
<path d="M4210 3051 c-58 -99 -140 -210 -226 -308 -33 -36 -61 -69 -64 -72 -3
-3 -23 -22 -45 -41 -22 -19 -34 -28 -27 -20 13 15 17 34 4 26 -4 -2 -18 2 -32
10 l-25 13 27 1 c15 0 30 -4 33 -10 3 -5 11 -10 16 -10 6 0 8 4 4 9 -3 5 0 13
5 16 8 5 6 13 -6 26 -19 21 -39 26 -28 7 5 -8 -3 -6 -16 4 -14 9 -24 23 -24
32 1 8 -7 18 -18 22 -24 7 -68 44 -68 56 0 4 8 8 18 9 10 0 6 4 -11 11 -21 7
-26 15 -22 29 4 13 2 19 -8 19 -9 0 -17 -5 -19 -12 -7 -19 -26 0 -47 48 -12
25 -25 43 -30 40 -5 -3 -14 1 -20 8 -10 11 -8 15 6 19 13 3 8 7 -15 12 -32 7
-54 25 -32 25 6 0 8 5 5 10 -5 8 -11 8 -19 1 -10 -8 -16 -5 -23 12 -14 31 0
58 16 31 9 -17 10 -17 11 -1 0 9 -5 17 -11 17 -8 0 -8 5 1 15 7 8 9 15 4 15
-5 0 -20 -17 -34 -38 -25 -37 -110 -125 -110 -113 0 4 20 27 45 51 24 24 43
45 41 47 -5 6 -229 -47 -371 -88 -487 -141 -877 -347 -999 -529 -42 -63 1
-330 93 -575 27 -72 50 -118 68 -134 26 -22 32 -23 132 -18 82 4 129 12 206
37 177 57 395 169 611 316 184 125 451 337 533 423 25 25 38 37 30 27 -13 -18
-12 -19 46 -11 183 22 494 22 622 -1 21 -4 46 -8 56 -10 10 -2 15 1 11 7 -8
13 16 40 29 32 6 -3 7 -1 3 5 -4 7 6 31 22 54 74 109 180 328 196 404 6 26 3
32 -19 42 -67 31 -272 72 -427 85 l-47 4 -51 -86z m-697 -55 c4 -10 1 -13 -9
-9 -7 3 -14 9 -14 14 0 14 17 10 23 -5z m-143 -39 c0 -2 -13 -16 -30 -32 -16
-16 -30 -26 -30 -22 0 3 12 18 27 32 27 24 33 28 33 22z m-90 -80 c0 -2 -10
-12 -22 -23 l-23 -19 19 23 c18 21 26 27 26 19z m-110 -91 c0 -2 -8 -10 -17
-17 -16 -13 -17 -12 -4 4 13 16 21 21 21 13z m640 -221 c-7 -8 -17 -15 -23
-15 -6 0 -2 7 9 15 25 19 30 19 14 0z"/>
<path d="M3920 2746 c0 -2 8 -10 18 -17 15 -13 16 -12 3 4 -13 16 -21 21 -21
13z"/>
<path d="M5117 2720 c-3 -14 -10 -52 -17 -85 -17 -88 -47 -179 -92 -273 l-39
-83 34 -47 c42 -57 61 -102 77 -178 l12 -57 35 79 c61 141 78 215 77 349 0
103 -4 131 -27 200 -14 44 -33 89 -41 100 -14 20 -14 19 -19 -5z"/>
<path d="M4455 2451 c-3 -5 -2 -12 3 -15 5 -3 9 1 9 9 0 17 -3 19 -12 6z"/>
<path d="M4435 2420 c-3 -5 -1 -10 4 -10 6 0 11 5 11 10 0 6 -2 10 -4 10 -3 0
-8 -4 -11 -10z"/>
<path d="M4463 2375 c-7 -8 -13 -16 -13 -19 0 -2 6 -6 13 -9 7 -3 13 5 13 19
1 13 1 24 0 24 0 -1 -7 -7 -13 -15z"/>
<path d="M4379 2353 c-53 -61 -73 -86 -62 -79 6 3 14 2 17 -3 4 -5 -2 -8 -11
-6 -12 2 -67 -46 -155 -134 -76 -75 -146 -136 -156 -137 -147 -8 -361 -49
-532 -101 -469 -142 -920 -415 -920 -558 0 -8 21 -33 46 -57 119 -111 288
-217 458 -285 83 -33 95 -35 160 -29 195 18 571 199 897 430 l115 83 41 -12
c86 -26 143 -79 143 -135 0 -29 -39 -102 -64 -120 -69 -49 -204 -130 -287
-171 -150 -75 -288 -116 -453 -134 -89 -10 -49 -25 68 -25 125 0 278 23 409
61 134 39 359 151 470 235 113 85 271 239 261 255 -4 7 -3 9 3 6 10 -6 59 48
81 90 17 31 15 36 -6 16 -11 -10 -17 -21 -15 -25 2 -4 -3 -5 -12 -1 -9 3 -13
9 -8 12 13 9 15 45 4 72 -5 13 -10 18 -10 11 -1 -16 -41 -60 -41 -44 0 6 4 13
9 16 5 3 11 17 13 31 3 13 1 22 -3 19 -5 -3 -9 -11 -9 -17 0 -7 -22 -35 -50
-62 -60 -59 -66 -56 -10 5 36 39 40 50 40 95 0 65 -37 143 -90 187 -21 18 -39
38 -40 43 -1 6 -5 15 -10 20 -12 15 0 75 15 75 16 0 26 -48 12 -57 -6 -3 -7
-1 -3 5 4 7 3 12 -3 12 -14 0 -23 -18 -16 -31 8 -12 41 16 87 74 l30 37 -27 0
c-21 0 -25 -3 -17 -13 7 -9 8 -17 1 -27 -8 -11 -12 -12 -16 -2 -2 6 -11 12
-19 12 -8 0 -14 9 -14 20 0 24 -46 74 -59 65 -10 -6 -24 11 -28 35 -3 19 -42
52 -53 45 -10 -6 -23 12 -27 35 -3 23 -40 49 -62 43 -27 -7 -36 34 -10 50 10
6 19 16 19 21 0 5 -3 7 -6 3 -8 -7 -34 17 -34 32 0 6 -7 7 -17 4 -11 -4 -14
-3 -9 5 5 8 1 10 -11 5 -16 -6 -16 -5 -4 10 22 28 7 19 -20 -10z m41 -56 c0
-4 -6 -10 -14 -13 -8 -3 -12 -13 -9 -22 3 -10 1 -13 -4 -7 -4 6 -14 10 -22 10
-8 0 -16 11 -17 25 -3 23 -3 23 10 8 16 -22 22 -22 30 -2 3 8 2 12 -3 9 -14
-8 -22 10 -14 30 5 15 8 15 24 -6 10 -13 19 -28 19 -32z m-570 -451 c0 -2 -8
-10 -17 -17 -16 -13 -17 -12 -4 4 13 16 21 21 21 13z m1016 -293 c-10 -10 -19
5 -10 18 6 11 8 11 12 0 2 -7 1 -15 -2 -18z m-36 -17 c0 -2 -7 -7 -16 -10 -8
-3 -12 -2 -9 4 6 10 25 14 25 6z m10 -26 c0 -5 -5 -10 -11 -10 -5 0 -7 5 -4
10 3 6 8 10 11 10 2 0 4 -4 4 -10z m-127 -15 c-3 -9 -8 -14 -10 -11 -3 3 -2 9
2 15 9 16 15 13 8 -4z m147 -10 c-7 -9 -15 -13 -19 -10 -3 3 1 10 9 15 21 14
24 12 10 -5z m-210 -49 c0 -2 -8 -10 -17 -17 -16 -13 -17 -12 -4 4 13 16 21
21 21 13z"/>
<path d="M4480 2270 c0 -5 5 -10 10 -10 6 0 10 5 10 10 0 6 -4 10 -10 10 -5 0
-10 -4 -10 -10z"/>
<path d="M4640 2120 c0 -13 7 -20 20 -20 13 0 17 5 14 14 -9 24 -34 28 -34 6z"/>
<path d="M4822 2074 c-12 -19 -20 -34 -18 -34 7 0 49 61 44 65 -2 2 -13 -12
-26 -31z"/>
<path d="M4720 2046 c0 -9 5 -16 10 -16 6 0 10 4 10 9 0 6 -4 13 -10 16 -5 3
-10 -1 -10 -9z"/>
<path d="M4905 1699 c-4 -6 -5 -12 -2 -15 2 -3 7 2 10 11 7 17 1 20 -8 4z"/>
<path d="M4870 1665 c-7 -9 -11 -17 -9 -20 3 -2 10 5 17 15 14 24 10 26 -8 5z"/>
<path d="M4885 1610 c-3 -5 -2 -17 3 -27 9 -15 11 -14 23 5 11 18 14 19 24 5
10 -13 14 -13 20 -3 6 9 4 11 -5 5 -10 -6 -12 -4 -7 7 4 11 0 15 -11 14 -9 -2
-18 -8 -20 -14 -2 -7 -8 -12 -14 -12 -6 0 -8 7 -4 15 6 17 0 20 -9 5z"/>
</g>
</svg>
