<?xml version="1.0" standalone="no"?>
<!DOCTYPE svg PUBLIC "-//W3C//DTD SVG 20010904//EN"
 "http://www.w3.org/TR/2001/REC-SVG-20010904/DTD/svg10.dtd">
<svg version="1.0" xmlns="http://www.w3.org/2000/svg"
 width="512.000000pt" height="512.000000pt" viewBox="0 0 512.000000 512.000000"
 preserveAspectRatio="xMidYMid meet">
<metadata>
Created by potrace 1.13, written by Peter Selinger 2001-2015
</metadata>
<g transform="translate(0.000000,512.000000) scale(0.100000,-0.100000)"
fill="#000000" stroke="none">
<path d="M4899 4550 c16 -26 17 -36 8 -43 -8 -6 -6 -7 7 -3 13 5 17 2 12 -9
-9 -24 12 -68 29 -61 17 6 21 -9 5 -19 -10 -6 -3 -56 10 -65 4 -3 10 -18 13
-35 3 -16 12 -57 20 -90 27 -106 29 -184 31 -910 l1 -714 -27 -16 -27 -16 -4
-727 -3 -727 -27 -100 c-50 -185 -171 -392 -306 -525 -134 -131 -324 -241
-511 -297 l-95 -28 -1435 -5 c-1605 -6 -1575 -7 -1775 66 -64 24 -227 99 -250
116 -5 4 -24 19 -41 33 -17 13 -34 21 -38 18 -4 -4 -9 3 -13 15 -3 13 -11 21
-17 19 -6 -3 -25 8 -41 24 l-31 29 -36 -20 c-22 -12 -40 -16 -43 -10 -3 6 0
10 8 10 8 0 22 11 31 25 20 30 5 33 -34 5 -15 -11 -31 -16 -36 -12 -5 4 12
-18 37 -48 135 -161 382 -311 626 -378 l98 -27 1475 -3 c1621 -3 1541 -5 1732
58 331 111 601 351 752 671 52 109 90 233 106 345 8 57 10 488 8 1519 l-4
1440 -26 95 c-15 52 -37 120 -48 150 -29 75 -107 221 -136 256 l-25 29 20 -35z"/>
<path d="M1480 3985 c-21 -11 -79 -130 -293 -594 -185 -403 -267 -591 -267
-615 0 -25 7 -40 26 -55 24 -19 40 -21 185 -21 152 0 158 1 186 24 16 14 45
63 68 115 l40 91 97 0 c110 0 103 7 114 -105 6 -57 12 -74 35 -97 l27 -28 151
0 151 0 0 -35 c0 -111 97 -202 257 -242 74 -18 389 -25 471 -10 36 6 42 5 42
-10 0 -16 -13 -18 -120 -19 -66 -1 -128 -2 -137 -2 -10 0 -70 2 -133 4 -107 5
-118 4 -143 -16 -15 -12 -27 -28 -27 -36 0 -19 -6 -18 -44 11 -56 42 -105 57
-188 57 -78 0 -149 -22 -192 -60 -19 -17 -19 -16 -12 17 20 106 19 136 -6 165
-21 25 -31 28 -108 33 -99 6 -164 -8 -184 -40 -8 -12 -19 -56 -26 -97 -18
-118 -17 -116 -48 -87 -41 38 -84 56 -161 67 -89 13 -196 -1 -261 -34 l-48
-24 -17 44 c-22 57 -93 130 -153 156 -108 48 -273 28 -373 -46 -128 -95 -198
-315 -155 -486 45 -178 201 -281 379 -251 77 13 112 28 162 72 l35 31 26 -32
c53 -63 152 -92 234 -70 31 8 129 12 306 11 250 -1 261 0 283 20 12 11 24 34
28 50 l6 29 40 -36 c61 -56 120 -78 202 -78 84 0 131 14 190 60 l45 34 15 -23
c36 -56 145 -89 223 -68 27 8 137 12 298 12 252 0 256 0 278 23 l23 22 33 -23
c51 -34 130 -49 188 -34 26 6 106 11 177 11 117 -1 132 1 151 19 12 11 24 26
26 33 3 9 16 3 40 -18 83 -73 286 -68 326 8 l14 25 49 -33 c96 -64 223 -69
339 -11 36 17 68 34 73 35 4 2 7 -3 7 -12 0 -34 40 -46 155 -46 157 0 158 1
190 194 9 55 18 103 21 108 3 4 23 8 44 8 76 0 101 43 115 195 7 67 5 73 -18
100 -28 33 -13 32 -253 18 -154 -9 -166 -13 -185 -70 l-11 -35 -37 35 c-48 46
-86 64 -160 76 -77 12 -170 -1 -228 -34 -41 -22 -42 -22 -59 -4 -9 10 -24 21
-33 24 -12 4 -15 15 -13 49 3 38 0 49 -22 70 -24 25 -31 26 -130 26 -97 0
-107 -2 -135 -25 -22 -19 -32 -38 -37 -70 -3 -26 -12 -45 -19 -45 -7 0 -23 -9
-37 -20 -25 -19 -25 -19 -66 1 -92 46 -266 44 -364 -5 l-48 -23 6 82 c6 75 5
84 -15 104 -11 11 -30 21 -41 21 -26 0 -26 1 10 56 100 158 39 360 -131 439
l-50 23 42 16 c22 9 65 40 95 68 l54 51 0 -71 c0 -130 50 -243 145 -330 96
-88 196 -124 350 -124 162 -1 287 48 403 157 76 71 122 145 122 198 0 23 9 49
23 68 20 28 22 41 21 142 -1 87 -6 125 -23 171 -38 108 -98 183 -189 240 -163
101 -431 93 -597 -17 -64 -43 -140 -120 -173 -176 l-25 -43 -17 55 c-10 30
-27 69 -39 86 l-22 31 46 0 c37 0 52 5 74 28 25 24 29 38 39 140 13 129 8 153
-39 178 -45 23 -196 16 -260 -13 -65 -29 -116 -78 -148 -141 l-28 -56 -106 -3
c-179 -5 -277 -36 -365 -116 -95 -88 -130 -234 -81 -346 l20 -48 -56 -57 c-32
-31 -58 -56 -59 -54 -2 2 -31 190 -65 418 -35 228 -67 423 -72 432 -24 44 -44
48 -249 48 -147 -1 -201 -4 -220 -15z m488 -612 c80 -525 84 -554 68 -578 -16
-25 -17 -25 -166 -25 -133 0 -149 2 -154 18 -2 9 -10 63 -16 120 l-12 102
-154 -2 -155 -3 -52 -115 -53 -115 -142 -3 c-78 -1 -142 1 -142 5 0 7 466
1025 507 1106 l24 47 181 -2 182 -3 84 -552z m1142 501 l32 -7 -7 -86 c-9
-122 -8 -119 -59 -114 -54 7 -106 -10 -136 -42 l-24 -25 25 -17 c63 -45 108
-121 109 -184 0 -58 -27 -132 -66 -177 -70 -82 -154 -106 -368 -107 -148 0
-149 0 -168 -25 -21 -28 -16 -55 10 -65 9 -4 100 -11 201 -15 177 -9 187 -10
247 -40 85 -41 117 -89 122 -180 5 -80 -15 -135 -73 -199 -32 -35 -43 -41 -77
-41 -28 0 -46 -7 -64 -25 -62 -62 -408 -70 -587 -15 -146 45 -201 168 -117
263 16 19 47 42 69 52 l41 18 -35 38 c-85 94 -40 222 100 280 l54 22 -42 41
c-117 113 -74 298 86 375 80 39 173 54 303 49 l105 -4 11 43 c33 133 168 215
308 187z m712 -253 c80 -31 159 -105 200 -189 30 -61 33 -76 37 -179 l3 -113
-296 0 -296 0 0 -40 c0 -104 91 -159 187 -113 30 14 65 54 76 87 4 11 287 -36
287 -48 0 -21 -66 -110 -113 -151 -104 -90 -233 -132 -380 -122 -179 11 -304
98 -363 252 -27 72 -25 237 4 317 56 155 178 269 335 313 77 22 245 14 319
-14z m-3093 -1147 c68 -28 121 -98 136 -175 9 -48 -4 -56 -98 -61 -76 -3 -78
-3 -83 22 -11 54 -28 75 -65 78 -26 2 -40 -3 -57 -21 -46 -49 -79 -254 -49
-301 21 -32 51 -41 87 -26 26 11 60 61 60 90 0 8 18 10 68 5 37 -4 70 -10 73
-14 4 -3 1 -33 -5 -66 -9 -48 -19 -67 -48 -97 -53 -53 -93 -71 -173 -76 -89
-6 -159 21 -210 81 -51 60 -68 121 -63 231 3 75 9 102 34 156 38 80 73 123
129 156 77 45 182 52 264 18z m986 -16 c-3 -13 -25 -147 -50 -298 -25 -151
-48 -285 -50 -297 -5 -22 -10 -23 -90 -23 -46 0 -86 3 -88 8 -4 7 89 592 98
620 3 8 31 12 95 12 89 0 90 0 85 -22z m1325 10 c0 -7 -16 -105 -36 -218 -19
-113 -42 -247 -50 -299 -8 -51 -17 -97 -20 -102 -3 -5 -43 -9 -90 -9 -68 0
-84 3 -84 15 0 8 23 151 50 316 28 165 50 303 50 305 0 2 41 4 90 4 65 0 90
-3 90 -12z m843 -23 c0 -5 -4 -36 -8 -67 l-7 -58 41 0 c37 0 41 -2 41 -25 0
-14 -9 -44 -20 -65 -18 -35 -25 -40 -55 -40 -19 0 -35 -3 -35 -6 0 -4 -7 -49
-16 -101 -18 -108 -13 -123 43 -123 l35 0 -7 -52 c-4 -29 -11 -57 -17 -63 -5
-5 -47 -10 -93 -10 -79 0 -85 2 -114 29 -17 16 -34 44 -37 62 -5 29 16 194 32
247 4 13 -1 17 -25 17 -16 0 -32 3 -34 8 -3 4 0 33 5 65 10 56 11 57 43 57 36
0 34 -2 51 92 6 37 6 37 63 41 83 5 116 3 114 -8z m-2568 -141 c23 -12 48 -36
60 -57 l19 -36 -27 -169 c-15 -93 -27 -175 -25 -183 2 -11 -17 -15 -89 -17
l-93 -3 0 32 0 33 -27 -26 c-77 -74 -201 -62 -253 24 -25 42 -25 81 0 134 33
68 97 99 228 110 88 8 107 17 91 45 -14 27 -76 26 -105 -2 -21 -19 -26 -20
-81 -9 -111 22 -111 22 -53 80 53 53 111 70 225 67 67 -2 101 -8 130 -23z
m760 7 c61 -27 105 -83 105 -131 0 -31 -4 -40 -17 -41 -10 0 -44 -4 -76 -8
l-57 -7 -8 30 c-18 69 -67 59 -94 -20 -32 -91 -18 -174 28 -174 16 0 64 44 64
58 0 5 29 2 65 -6 74 -18 81 -32 43 -87 -79 -117 -262 -128 -355 -22 -101 115
-46 335 102 403 62 29 143 31 200 5z m1367 9 c21 -6 51 -22 68 -37 25 -21 30
-31 25 -53 -3 -14 -1 -39 5 -54 8 -21 5 -56 -10 -145 -11 -65 -20 -135 -20
-155 l0 -37 -92 3 -93 3 3 35 c2 35 2 35 -15 13 -68 -83 -212 -84 -263 -1 -28
46 -27 115 3 159 33 50 111 86 205 94 104 9 114 12 110 38 -4 32 -71 36 -110
7 -26 -19 -33 -20 -91 -9 -92 18 -94 20 -57 63 35 39 76 65 125 77 46 11 165
10 207 -1z m893 -9 c53 -24 112 -91 121 -136 10 -54 -1 -156 -21 -195 -40 -81
-119 -137 -205 -147 -104 -12 -191 22 -240 94 -33 49 -40 163 -15 230 24 62
79 121 140 149 63 30 161 32 220 5z m540 -58 c-4 -43 -9 -81 -12 -85 -2 -5
-17 -8 -33 -8 -42 0 -77 -16 -95 -43 -9 -14 -25 -78 -36 -143 -11 -65 -22
-121 -25 -126 -3 -4 -43 -8 -90 -8 -81 0 -84 1 -83 23 0 12 17 119 37 237 l37
215 79 3 79 3 -5 -46 -6 -46 24 35 c28 41 67 65 108 66 l28 0 -7 -77z m-2415
56 c0 -6 -12 -81 -26 -166 -24 -141 -25 -156 -10 -171 12 -13 20 -13 41 -4 35
16 50 57 70 187 9 61 18 122 21 138 l6 27 89 0 c49 0 89 -2 89 -4 0 -12 -71
-453 -75 -463 -3 -9 -31 -13 -91 -13 l-86 0 7 38 7 37 -21 -26 c-65 -83 -215
-76 -251 11 -12 29 -11 53 14 204 15 94 30 181 33 194 5 21 10 22 94 22 57 0
89 -4 89 -11z"/>
<path d="M1546 3412 c-36 -82 -66 -152 -66 -156 0 -3 41 -6 90 -6 79 0 90 2
90 18 0 29 -38 283 -43 288 -2 3 -34 -62 -71 -144z"/>
<path d="M2585 3456 c-46 -46 -53 -131 -12 -164 26 -22 81 -26 115 -8 60 31
81 119 41 170 -17 22 -28 26 -70 26 -39 0 -55 -5 -74 -24z"/>
<path d="M2362 2745 c-48 -61 16 -90 198 -90 143 0 183 12 188 57 3 24 -1 28
-35 37 -21 5 -104 12 -184 16 l-146 7 -21 -27z"/>
<path d="M3600 3449 c-13 -5 -33 -18 -43 -27 -20 -18 -57 -84 -57 -102 0 -6
46 -10 126 -10 l127 0 -6 46 c-8 77 -79 122 -147 93z"/>
<path d="M4188 2193 c-20 -24 -26 -42 -38 -118 -15 -95 6 -136 64 -121 28 7
42 38 56 129 8 53 8 74 -2 95 -16 33 -57 41 -80 15z"/>
</g>
</svg>
